<svg version="1.1" id="Layer_1" xmlns="http://www.w3.org/2000/svg" xmlns:xlink="http://www.w3.org/1999/xlink" x="0px" y="0px"
	 width="100%" viewBox="0 0 601 603" enable-background="new 0 0 601 603" xml:space="preserve">
<path fill="#FDFEFF" opacity="1.000000" stroke="none" 
	d="
M1.000000,217.000000 
	C1.000000,144.666687 1.000000,72.833374 1.000000,1.000048 
	C201.333252,1.000032 401.666504,1.000032 601.999817,1.000016 
	C601.999878,201.999863 601.999878,402.999725 601.999939,603.999634 
	C401.666870,603.999756 201.333740,603.999756 1.000301,603.999878 
	C1.000000,475.166656 1.000000,346.333344 1.000000,217.000000 
M101.524727,174.367950 
	C101.524727,174.367950 101.604141,174.363434 102.148193,174.208755 
	C102.516403,173.537827 102.884621,172.866913 103.231285,172.076462 
	C103.231285,172.076462 103.192154,172.191452 103.744644,171.890915 
	C104.247375,170.991837 104.750107,170.092773 105.226997,169.069443 
	C105.226997,169.069443 105.192810,169.191666 105.777519,168.871719 
	C107.273743,166.655762 108.769974,164.439804 110.270363,162.122055 
	C110.270363,162.122055 110.213783,162.206772 110.807312,161.900009 
	C120.927620,150.885590 130.544754,139.349915 141.287125,128.979904 
	C157.072083,113.742119 175.796783,102.489861 195.858688,92.135071 
	C209.243774,87.042786 222.628845,81.950500 236.796021,76.905861 
	C251.628220,74.590218 266.427551,72.031990 281.300385,70.016182 
	C303.224854,67.044640 325.008453,69.157997 346.497009,73.598656 
	C359.477448,76.281090 372.166260,80.374855 385.562347,84.277664 
	C389.040344,85.613541 392.518372,86.949417 396.499054,88.722031 
	C407.625580,94.827820 418.752075,100.933601 429.631104,107.442307 
	C429.380981,107.838066 429.130890,108.233818 428.280090,109.057816 
	C422.769348,117.764893 424.736542,123.213356 434.510345,126.279556 
	C435.616394,126.626541 436.746429,126.896957 437.920807,127.121948 
	C437.920807,127.121948 437.825226,127.099968 438.010315,127.591743 
	C438.329712,127.685539 438.649078,127.779327 439.582458,128.050232 
	C439.995941,128.152756 440.409454,128.255264 441.355927,128.842911 
	C443.243378,129.363846 445.130859,129.884766 447.592377,130.758377 
	C459.950043,133.862122 472.193665,137.597198 484.703796,139.856644 
	C493.647247,141.471924 501.915771,130.655869 499.541473,121.809525 
	C494.913177,104.565147 485.485596,89.568909 477.023956,74.137581 
	C475.144806,70.710686 469.458313,70.209877 465.345947,72.790611 
	C464.491516,73.500900 463.637085,74.211189 462.437408,74.866669 
	C462.437408,74.866669 462.095673,74.793282 461.854431,74.165695 
	C452.260010,68.393410 442.665619,62.621120 432.618988,56.361210 
	C404.995972,41.877323 375.824921,32.363853 344.971405,27.349894 
	C322.293488,23.664534 299.670746,23.104155 276.880280,24.645920 
	C275.854034,24.715345 274.868439,25.386074 273.233826,25.844276 
	C272.817810,25.913168 272.401825,25.982059 271.244202,25.836805 
	C261.014771,27.263763 250.768967,28.586662 240.567047,30.188923 
	C237.930344,30.603033 235.431305,31.893618 232.247604,32.853729 
	C231.832947,32.897804 231.418304,32.941883 230.430893,32.707676 
	C217.290741,37.143864 204.150604,41.580055 190.267258,46.064350 
	C178.818695,51.987377 167.370132,57.910404 155.232376,63.977959 
	C145.223129,70.827339 134.504395,76.853416 125.373543,84.722099 
	C112.200012,96.074661 100.178917,108.764526 87.151932,121.172035 
	C86.422676,122.081894 85.693413,122.991760 84.405617,124.228851 
	C83.541458,125.440887 82.677299,126.652916 81.903152,127.977982 
	C81.903152,127.977982 81.862839,127.839226 81.275818,128.139847 
	C80.095490,129.728241 78.915169,131.316635 77.313324,133.123169 
	C77.064957,133.349777 76.935913,133.631119 76.469307,134.237244 
	C76.097160,134.824203 75.725006,135.411163 74.845825,136.481308 
	C42.708237,179.720428 25.012794,228.241287 22.136568,282.025787 
	C20.680370,309.256226 23.347420,336.173859 29.967525,362.673279 
	C37.322456,392.114105 48.900959,419.718689 65.827827,445.806702 
	C69.181778,450.582764 72.535728,455.358826 75.920959,460.016022 
	C75.920959,460.016022 75.839226,460.107819 75.992569,460.777130 
	C88.957855,478.368439 103.543030,494.432373 121.003510,508.710327 
	C122.604034,509.889648 124.204552,511.068970 125.949051,512.202332 
	C125.949051,512.202332 125.798332,512.191040 126.076286,512.788757 
	C127.687691,513.904846 129.299103,515.020935 130.988724,516.053589 
	C130.988724,516.053589 130.880966,516.091858 131.222763,516.669556 
	C138.028259,521.438843 144.592331,526.607666 151.688599,530.895752 
	C167.286850,540.321350 182.820282,550.007996 201.320068,554.849182 
	C206.519196,556.878723 211.560745,559.629456 216.946228,560.806091 
	C234.939346,564.737366 252.968857,568.670410 271.159546,571.461365 
	C280.923950,572.959473 291.046356,572.124329 301.767303,572.564941 
	C312.905640,571.657166 324.066681,570.950989 335.166290,569.699707 
	C337.931580,569.387939 340.498566,567.316895 343.676758,565.890869 
	C344.150665,565.357056 344.624603,564.823242 345.721039,564.017700 
	C352.859772,557.400635 354.873016,549.420227 351.131805,542.365845 
	C351.131805,542.365845 351.033417,542.014038 351.296112,541.430054 
	C348.993103,529.004333 340.239838,522.645996 327.661530,524.094055 
	C318.922089,525.100098 310.175079,526.123352 301.403351,526.737976 
	C295.290253,527.166321 289.129517,526.915283 282.192902,526.773926 
	C280.837067,526.781921 279.481201,526.789917 278.053955,526.869568 
	C278.053955,526.869568 278.138641,526.924805 277.951569,526.562561 
	C277.700745,526.369141 277.448547,526.367188 276.440338,526.217346 
	C275.623322,526.158142 274.806305,526.098938 273.273163,525.737366 
	C266.729340,524.778564 260.153046,523.998291 253.649994,522.815369 
	C245.729736,521.374695 237.871094,519.595154 229.642197,517.860352 
	C229.642197,517.860352 229.286377,517.903320 228.970474,517.267883 
	C210.290649,510.628754 192.197006,502.712067 174.734985,492.045837 
	C166.853333,486.637024 158.971680,481.228210 150.912384,475.292328 
	C150.356903,474.831635 149.801437,474.370911 148.872910,473.345154 
	C146.962250,471.752228 145.051590,470.159332 142.810989,468.016113 
	C124.408257,451.420868 109.373024,432.074829 96.131592,410.402100 
	C95.463425,409.480347 94.795258,408.558563 93.959641,407.185944 
	C93.746017,406.930237 93.477211,406.763489 93.157356,405.975342 
	C91.446999,402.317169 89.736641,398.658997 88.078186,394.245697 
	C84.064156,383.825226 80.050125,373.404755 76.077309,362.571655 
	C76.045311,362.265900 75.888466,362.051514 75.440842,361.088287 
	C73.659523,354.635773 71.878204,348.183228 70.153381,341.371948 
	C70.153381,341.371948 70.071785,341.018097 70.390411,340.523682 
	C69.959808,339.258118 69.529205,337.992554 69.107315,336.328705 
	C69.107315,336.328705 68.955215,335.960541 69.138084,335.341278 
	C68.788734,333.481781 68.439377,331.622314 68.100746,329.350372 
	C68.100746,329.350372 67.958443,328.963135 68.149681,328.276703 
	C67.417549,320.864624 66.685410,313.452515 66.093651,305.231384 
	C66.044434,304.140778 65.995216,303.050201 66.054550,301.040802 
	C66.332458,295.039368 66.610367,289.037933 67.093193,282.126770 
	C67.722511,275.749084 68.351837,269.371399 69.216766,262.248444 
	C70.140602,255.834457 71.064438,249.420471 72.357124,242.340591 
	C73.269417,238.645493 74.181709,234.950378 75.760284,230.985794 
	C80.507416,218.990936 85.254547,206.996078 90.140549,194.690399 
	C90.140549,194.690399 90.106346,194.351669 90.602867,194.031357 
	C90.745758,193.684601 90.888649,193.337845 91.316734,192.469559 
	C91.586716,191.765579 91.856689,191.061615 92.739044,190.039490 
	C94.217308,187.397385 95.695580,184.755264 97.095779,182.028000 
	C97.095779,182.028000 97.114243,182.142044 97.631302,181.806747 
	C97.836639,181.240341 98.041969,180.673935 98.142746,180.099457 
	C98.142746,180.099457 98.195786,180.189911 98.751129,179.887924 
	C99.222092,178.959747 99.693054,178.031570 100.091331,177.018402 
	C100.091331,177.018402 100.106834,177.129135 100.651192,176.736023 
	C100.918129,175.935913 101.185066,175.135803 101.524727,174.367950 
M435.403961,211.385483 
	C435.403961,211.385483 435.576752,211.433258 436.081024,210.975677 
	C436.921661,206.242661 439.078369,201.298996 438.360657,196.815430 
	C436.040192,182.319748 424.464569,175.668259 408.271149,178.978867 
	C405.581055,180.898849 402.594513,182.513412 400.249634,184.789124 
	C386.504242,198.128952 372.848633,211.562897 359.275299,225.078156 
	C331.762787,252.472961 304.323700,279.941528 276.847595,307.372894 
	C275.470795,308.747437 274.030151,310.058044 272.507538,311.504547 
	C271.219604,310.324097 270.218628,309.465332 269.283020,308.540436 
	C251.412506,290.874420 233.564651,273.185425 215.679321,255.534393 
	C205.832550,245.816650 192.238724,245.395477 183.105499,254.450729 
	C173.676193,263.799530 173.572952,277.576660 183.415421,287.483368 
	C207.490921,311.716064 231.716263,335.801514 256.085480,359.738373 
	C258.663513,362.270691 262.597961,363.422089 266.473206,365.689087 
	C275.419556,367.283142 283.158722,365.306427 289.571472,357.909821 
	C289.868195,357.723938 290.023132,357.456085 290.644501,356.817169 
	C294.138062,353.225677 297.631592,349.634216 301.736816,345.790436 
	C306.567291,340.983307 311.414307,336.192627 316.225311,331.366119 
	C334.521301,313.011139 352.805664,294.644562 371.694366,276.013794 
	C372.562195,275.042206 373.430023,274.070587 374.900543,272.849152 
	C385.969574,261.674255 397.038574,250.499359 408.724457,239.026413 
	C417.661438,229.853378 426.598450,220.680344 435.403961,211.385483 
M562.637451,208.268539 
	C558.774841,199.820435 555.038330,191.311676 551.010376,182.943161 
	C547.715698,176.098251 541.781677,173.693008 534.519897,174.323074 
	C518.502869,175.712845 510.217499,189.714264 516.768127,204.168243 
	C517.247070,205.225021 517.753967,206.285141 518.078979,207.393219 
	C521.752808,219.916595 525.393555,232.449661 529.003357,245.819305 
	C532.513245,265.780487 534.450073,285.865265 533.961243,306.160950 
	C533.749878,314.933411 537.268494,320.369476 545.653748,323.070587 
	C549.810120,324.409393 554.444580,325.026093 558.807739,324.817749 
	C571.757751,324.199341 579.312317,317.921356 578.155518,304.076050 
	C578.121826,295.376709 578.088135,286.677399 578.149536,277.087830 
	C576.844299,253.516205 571.155151,230.939163 562.637451,208.268539 
M389.452179,507.945770 
	C385.584625,509.475311 381.703156,510.970795 377.852051,512.540710 
	C366.150391,517.310974 361.958405,526.667542 366.033539,538.847595 
	C370.172058,551.217041 380.122009,557.279419 391.802429,554.006348 
	C427.661682,543.957886 458.571564,525.353271 485.008972,499.253387 
	C491.239319,493.102570 492.427246,485.654083 487.602478,478.370514 
	C484.373199,473.495422 480.079224,469.017883 475.419037,465.468933 
	C468.023743,459.836975 460.513214,460.586334 453.696259,466.920349 
	C434.955688,484.333252 413.650757,497.697357 389.452179,507.945770 
M566.638000,361.222321 
	C561.848267,351.482452 550.607178,344.912079 539.629578,345.910278 
	C529.215576,346.857147 525.009888,354.298309 522.013306,363.198730 
	C514.019043,386.942719 503.265106,409.398041 489.911774,430.616791 
	C483.646881,440.571808 484.963623,448.503571 493.816772,456.238892 
	C506.080139,466.953827 519.391968,465.265991 528.487305,451.958374 
	C542.551819,431.380096 554.035400,409.462860 562.362488,385.972565 
	C565.091919,378.273071 569.390808,370.707306 566.638000,361.222321 
z"/>
<path fill="#304469" opacity="1.000000" stroke="none" 
	d="
M408.107605,239.324463 
	C397.038574,250.499359 385.969574,261.674255 374.220032,272.974762 
	C372.724487,274.161011 371.909393,275.221680 371.094330,276.282318 
	C352.805664,294.644562 334.521301,313.011139 316.225311,331.366119 
	C311.414307,336.192627 306.567291,340.983307 301.057678,345.908173 
	C295.348846,348.242462 291.288635,351.363953 290.036255,357.106232 
	C290.023132,357.456085 289.868195,357.723938 288.963135,357.967102 
	C281.762604,362.454651 274.535034,364.736786 266.553192,364.522491 
	C266.342865,364.516846 266.120087,364.973236 265.903137,365.214142 
	C262.597961,363.422089 258.663513,362.270691 256.085480,359.738373 
	C231.716263,335.801514 207.490921,311.716064 183.415421,287.483368 
	C173.572952,277.576660 173.676193,263.799530 183.105499,254.450729 
	C192.238724,245.395477 205.832550,245.816650 215.679321,255.534393 
	C233.564651,273.185425 251.412506,290.874420 269.283020,308.540436 
	C270.218628,309.465332 271.219604,310.324097 272.507538,311.504547 
	C274.030151,310.058044 275.470795,308.747437 276.847595,307.372894 
	C304.323700,279.941528 331.762787,252.472961 359.275299,225.078156 
	C372.848633,211.562897 386.504242,198.128952 400.249634,184.789124 
	C402.594513,182.513412 405.581055,180.898849 408.879944,179.267059 
	C410.458435,179.684921 411.473633,180.069656 412.391083,179.906128 
	C427.136414,177.278152 438.317780,189.412155 436.978577,201.274231 
	C436.595184,204.670044 436.048523,208.047424 435.576721,211.433258 
	C435.576752,211.433258 435.403961,211.385483 435.110840,211.377930 
	C426.098602,219.904663 417.364838,228.424133 408.699188,237.012405 
	C408.214355,237.492889 408.291840,238.540710 408.107605,239.324463 
z"/>
<path fill="#40BCC1" opacity="1.000000" stroke="none" 
	d="
M84.964157,123.901619 
	C85.693413,122.991760 86.422676,122.081894 87.779732,121.038727 
	C90.984695,118.982788 93.561859,117.060158 96.768867,114.667656 
	C100.023735,120.967598 103.108566,126.938423 106.442131,133.390701 
	C100.902863,134.296921 101.049019,136.205322 104.352440,139.131775 
	C105.985733,140.578690 107.101128,142.610214 107.595612,143.257584 
	C108.565125,150.274506 109.389450,156.240631 110.213783,162.206772 
	C110.213783,162.206772 110.270363,162.122055 109.893898,162.128326 
	C108.075890,164.486938 106.634354,166.839310 105.192810,169.191666 
	C105.192810,169.191666 105.226997,169.069443 104.859009,169.113861 
	C104.058060,170.169327 103.625099,171.180389 103.192154,172.191452 
	C103.192154,172.191452 103.231285,172.076462 102.867493,172.115005 
	C102.203850,172.890182 101.903999,173.626801 101.604141,174.363434 
	C101.604141,174.363434 101.524727,174.367950 101.120697,174.395340 
	C100.513382,175.324860 100.310104,176.227005 100.106827,177.129135 
	C100.106834,177.129135 100.091331,177.018402 99.755013,177.077057 
	C99.011055,178.153793 98.603424,179.171844 98.195786,180.189911 
	C98.195786,180.189911 98.142746,180.099457 97.889938,180.222885 
	C97.462837,180.944885 97.288544,181.543472 97.114243,182.142044 
	C97.114243,182.142044 97.095779,182.028000 96.772781,182.076294 
	C95.008751,184.868942 93.567711,187.613297 92.126671,190.357635 
	C91.856689,191.061615 91.586716,191.765579 90.930634,192.886398 
	C90.398476,193.652710 90.252411,194.002197 90.106354,194.351669 
	C90.106346,194.351669 90.140549,194.690399 89.723907,194.897705 
	C87.311592,198.850113 84.876839,202.432053 83.411667,206.374313 
	C80.366859,214.566788 77.836075,222.950302 75.094002,231.255280 
	C74.181709,234.950378 73.269417,238.645493 71.891884,242.915222 
	C70.265213,249.947739 66.597939,256.091400 68.981163,262.993713 
	C68.351837,269.371399 67.722511,275.749084 66.604584,282.675110 
	C66.059311,289.468842 66.002655,295.714203 65.945999,301.959595 
	C65.995216,303.050201 66.044434,304.140778 65.738556,305.915009 
	C66.241798,314.053467 67.100121,321.508301 67.958443,328.963135 
	C67.958443,328.963135 68.100746,329.350372 68.071426,329.975159 
	C68.346466,332.386810 68.650841,334.173676 68.955215,335.960541 
	C68.955215,335.960541 69.107315,336.328705 69.073608,336.921570 
	C69.383865,338.682343 69.727829,339.850220 70.071793,341.018097 
	C70.071785,341.018097 70.153381,341.371948 70.096085,341.995056 
	C71.894783,349.054901 73.750778,355.491699 75.606773,361.928467 
	C75.888466,362.051514 76.045311,362.265900 75.778046,363.006409 
	C75.360390,363.907928 75.017197,364.459381 75.156410,364.829132 
	C78.845894,374.627075 82.569740,384.412262 86.367584,394.168518 
	C86.534142,394.596375 87.456169,394.730103 88.026291,395.000824 
	C89.736641,398.658997 91.446999,402.317169 92.989128,406.714722 
	C92.820900,411.781738 92.820900,416.109375 92.820900,420.741089 
	C92.096855,420.879700 90.836075,421.121033 90.164871,421.249512 
	C89.383583,423.253265 88.679955,424.784576 88.194366,426.382202 
	C87.734741,427.894409 86.987350,429.581482 87.277893,431.005737 
	C87.922173,434.163971 89.218124,437.183655 90.072731,440.307892 
	C90.337898,441.277252 90.342110,442.535553 89.946686,443.432770 
	C87.404793,449.200287 84.718666,454.904266 81.889702,461.041748 
	C79.993713,460.749084 77.916466,460.428467 75.839226,460.107819 
	C75.839226,460.107819 75.920959,460.016022 75.936668,459.695099 
	C72.486565,454.629395 69.020744,449.884644 65.554924,445.139862 
	C48.900959,419.718689 37.322456,392.114105 29.967525,362.673279 
	C23.347420,336.173859 20.680370,309.256226 22.136568,282.025787 
	C25.012794,228.241287 42.708237,179.720428 75.403435,136.232666 
	C76.282761,135.311752 76.604469,134.639465 76.926186,133.967194 
	C76.935913,133.631119 77.064957,133.349777 77.901985,133.014648 
	C79.614708,131.217178 80.738777,129.528198 81.862839,127.839226 
	C81.862839,127.839226 81.903152,127.977982 82.235931,127.932022 
	C83.367195,126.557922 84.165680,125.229774 84.964157,123.901619 
z"/>
<path fill="#6896EC" opacity="1.000000" stroke="none" 
	d="
M389.816040,507.831451 
	C413.650757,497.697357 434.955688,484.333252 453.696259,466.920349 
	C460.513214,460.586334 468.023743,459.836975 475.419037,465.468933 
	C480.079224,469.017883 484.373199,473.495422 487.602478,478.370514 
	C492.427246,485.654083 491.239319,493.102570 485.008972,499.253387 
	C458.571564,525.353271 427.661682,543.957886 391.802429,554.006348 
	C380.122009,557.279419 370.172058,551.217041 366.033539,538.847595 
	C361.958405,526.667542 366.150391,517.310974 377.852051,512.540710 
	C381.703156,510.970795 385.584625,509.475311 389.816040,507.831451 
z"/>
<path fill="#6996EC" opacity="1.000000" stroke="none" 
	d="
M578.015381,305.005707 
	C579.312317,317.921356 571.757751,324.199341 558.807739,324.817749 
	C554.444580,325.026093 549.810120,324.409393 545.653748,323.070587 
	C537.268494,320.369476 533.749878,314.933411 533.961243,306.160950 
	C534.450073,285.865265 532.513245,265.780487 529.301025,245.128387 
	C529.679688,242.974152 530.104370,241.429916 529.782227,240.061508 
	C528.388489,234.141296 526.254639,228.350037 525.365295,222.366913 
	C524.008972,213.241898 516.387634,205.723282 519.311279,195.309158 
	C520.130371,192.391525 520.396240,190.585815 523.242004,189.825348 
	C526.324585,189.001617 528.734192,187.578064 529.000000,184.000305 
	C529.000000,184.000000 529.000000,183.999390 529.371399,184.004395 
	C531.867798,183.657578 534.186401,183.734146 536.082825,182.876755 
	C542.818481,179.831512 547.945435,180.388336 550.366760,185.051605 
	C552.573120,189.300873 554.387512,193.752792 556.566833,198.017197 
	C558.472290,201.745667 560.645142,205.337494 562.699829,208.989700 
	C571.155151,230.939163 576.844299,253.516205 577.794556,277.822083 
	C577.293030,283.999847 576.994690,289.445129 577.055847,294.886322 
	C577.093750,298.262634 577.676941,301.632782 578.015381,305.005707 
z"/>
<path fill="#908EE7" opacity="1.000000" stroke="none" 
	d="
M566.778809,361.588013 
	C569.390808,370.707306 565.091919,378.273071 562.362488,385.972565 
	C554.035400,409.462860 542.551819,431.380096 528.487305,451.958374 
	C519.391968,465.265991 506.080139,466.953827 493.816772,456.238892 
	C484.963623,448.503571 483.646881,440.571808 489.911774,430.616791 
	C503.265106,409.398041 514.019043,386.942719 522.013306,363.198730 
	C525.009888,354.298309 529.215576,346.857147 539.629578,345.910278 
	C550.607178,344.912079 561.848267,351.482452 566.778809,361.588013 
z"/>
<path fill="#3EB5C2" opacity="1.000000" stroke="none" 
	d="
M110.510544,162.053391 
	C109.389450,156.240631 108.565125,150.274506 107.595612,143.257584 
	C107.101128,142.610214 105.985733,140.578690 104.352440,139.131775 
	C101.049019,136.205322 100.902863,134.296921 106.442131,133.390701 
	C103.108566,126.938423 100.023735,120.967598 96.768867,114.667656 
	C93.561859,117.060158 90.984695,118.982788 88.036797,120.894577 
	C100.178917,108.764526 112.200012,96.074661 125.373543,84.722099 
	C134.504395,76.853416 145.223129,70.827339 155.761322,64.176758 
	C160.997894,62.175629 166.168594,60.615898 170.303757,57.624607 
	C176.390121,53.221874 182.502426,52.365505 188.085373,54.224514 
	C190.552658,57.350769 192.336166,59.610611 194.840408,62.783695 
	C193.708313,63.639172 192.247284,65.166351 190.462296,65.999359 
	C187.262527,67.492599 186.981628,70.093765 189.150192,71.787170 
	C193.730606,75.363930 190.463867,77.930023 188.788834,80.899712 
	C188.248611,81.857491 187.317047,83.480812 187.649887,83.868988 
	C188.460358,84.814156 189.857788,85.365952 191.116989,85.770950 
	C191.764969,85.979370 192.622879,85.535133 193.345734,85.393684 
	C193.990463,87.879143 194.563263,90.087326 195.136063,92.295517 
	C175.796783,102.489861 157.072083,113.742119 141.287125,128.979904 
	C130.544754,139.349915 120.927620,150.885590 110.510544,162.053391 
z"/>
<path fill="#3FB8C2" opacity="1.000000" stroke="none" 
	d="
M75.915894,460.442474 
	C77.916466,460.428467 79.993713,460.749084 81.889702,461.041748 
	C84.718666,454.904266 87.404793,449.200287 89.946686,443.432770 
	C90.342110,442.535553 90.337898,441.277252 90.072731,440.307892 
	C89.218124,437.183655 87.922173,434.163971 87.277893,431.005737 
	C86.987350,429.581482 87.734741,427.894409 88.194366,426.382202 
	C88.679955,424.784576 89.383583,423.253265 90.164871,421.249512 
	C90.836075,421.121033 92.096855,420.879700 92.820900,420.741089 
	C92.820900,416.109375 92.820900,411.781738 92.987053,407.069916 
	C93.477211,406.763489 93.746017,406.930237 94.028252,407.785706 
	C94.839142,409.292542 95.581413,410.199554 96.323685,411.106598 
	C109.373024,432.074829 124.408257,451.420868 142.958893,468.678894 
	C145.153183,470.864502 147.199570,472.387329 149.245972,473.910187 
	C149.801437,474.370911 150.356903,474.831635 150.854843,475.888733 
	C149.992691,477.525116 148.672180,478.477692 148.478561,479.621094 
	C147.856110,483.297089 146.416229,487.492859 147.569382,490.658417 
	C149.336548,495.509460 149.785309,497.084900 146.426178,499.324615 
	C147.237427,502.279266 148.510773,504.861145 148.517014,507.446106 
	C148.525345,510.886841 147.654846,514.352295 146.947220,517.762634 
	C146.596344,519.453552 146.154068,521.486206 144.996735,522.505005 
	C144.368744,523.057800 142.054031,522.010681 140.674652,521.331116 
	C137.355347,519.695801 134.138916,517.851685 130.880966,516.091858 
	C130.880966,516.091858 130.988724,516.053589 130.945374,515.724243 
	C129.200790,514.326904 127.499565,513.258972 125.798340,512.191040 
	C125.798332,512.191040 125.949051,512.202332 125.910187,511.839508 
	C124.127266,510.360748 122.383209,509.244781 120.639145,508.128845 
	C103.543030,494.432373 88.957855,478.368439 75.915894,460.442474 
z"/>
<path fill="#3DACC4" opacity="1.000000" stroke="none" 
	d="
M273.989288,526.039673 
	C274.806305,526.098938 275.623322,526.158142 276.957672,526.482605 
	C277.683044,526.856201 277.904236,526.915161 278.138641,526.924805 
	C278.138641,526.924805 278.053955,526.869568 278.049255,527.264038 
	C277.305786,531.374695 279.045105,533.907471 281.728271,536.264709 
	C283.395050,537.729065 284.896362,539.611694 285.844452,541.605042 
	C286.985870,544.004761 287.461548,546.721069 288.179626,549.145691 
	C287.179108,551.461304 285.027008,554.051270 285.295258,556.359985 
	C285.740753,560.193726 285.337006,561.261047 281.400024,560.211609 
	C280.559601,559.987549 279.234009,561.583618 278.131897,562.341125 
	C278.991852,563.231628 279.797455,564.185730 280.733856,564.986938 
	C281.232941,565.414001 281.958130,565.576843 282.971619,566.035583 
	C280.921936,566.880371 279.458954,567.483337 277.996002,568.086243 
	C278.106598,568.568481 278.217194,569.050659 278.327789,569.532837 
	C281.404175,569.615295 284.516418,571.482300 287.525940,568.279053 
	C288.142090,567.623230 290.200897,567.169922 290.442627,567.490967 
	C293.322327,571.314514 297.382538,569.654663 300.993958,570.293762 
	C300.999237,571.172363 301.003235,571.757263 301.007202,572.342102 
	C291.046356,572.124329 280.923950,572.959473 271.159546,571.461365 
	C252.968857,568.670410 234.939346,564.737366 216.946228,560.806091 
	C211.560745,559.629456 206.519196,556.878723 201.170471,554.158325 
	C200.996124,551.454407 200.956055,549.441467 200.952591,547.428467 
	C200.950592,546.268311 201.135239,545.093628 201.006546,543.951294 
	C200.837906,542.454346 200.936356,540.498352 200.049133,539.595093 
	C197.757019,537.261597 197.608795,535.496277 199.496429,532.708984 
	C200.420441,531.344666 200.362946,528.280212 199.413971,526.910767 
	C197.736542,524.489990 197.835098,523.594177 200.279831,521.900391 
	C201.978241,520.723694 202.931885,518.341980 203.957123,516.363342 
	C204.832870,514.673218 205.336761,512.790466 206.387955,511.001587 
	C208.013382,511.417114 209.248886,511.847412 210.499786,512.226990 
	C216.759766,514.126404 223.023773,516.012573 229.286377,517.903320 
	C229.286377,517.903320 229.642197,517.860352 229.980225,518.239136 
	C230.547562,518.856445 230.743820,519.255493 231.010956,519.310547 
	C244.873398,522.166443 258.739136,525.007141 272.626007,527.740173 
	C272.956085,527.805176 273.529419,526.634155 273.989288,526.039673 
z"/>
<path fill="#3DAEC5" opacity="1.000000" stroke="none" 
	d="
M195.497375,92.215294 
	C194.563263,90.087326 193.990463,87.879143 193.345734,85.393684 
	C192.622879,85.535133 191.764969,85.979370 191.116989,85.770950 
	C189.857788,85.365952 188.460358,84.814156 187.649887,83.868988 
	C187.317047,83.480812 188.248611,81.857491 188.788834,80.899712 
	C190.463867,77.930023 193.730606,75.363930 189.150192,71.787170 
	C186.981628,70.093765 187.262527,67.492599 190.462296,65.999359 
	C192.247284,65.166351 193.708313,63.639172 194.840408,62.783695 
	C192.336166,59.610611 190.552658,57.350769 188.085373,54.224514 
	C182.502426,52.365505 176.390121,53.221874 170.303757,57.624607 
	C166.168594,60.615898 160.997894,62.175629 156.105927,64.104492 
	C167.370132,57.910404 178.818695,51.987377 190.861481,46.308102 
	C192.244003,46.556831 193.101044,46.769943 193.810318,46.535683 
	C205.123154,42.799217 216.427689,39.036430 227.700073,35.180138 
	C228.909882,34.766262 229.907562,33.732281 231.003647,32.985958 
	C231.418304,32.941883 231.832947,32.897804 232.766724,33.105736 
	C241.189743,31.915163 249.093658,30.472580 256.951050,29.415539 
	C256.948303,31.972733 256.364471,35.736149 257.143402,36.043266 
	C260.706360,37.448090 261.076660,39.864536 261.171021,43.061337 
	C261.201477,44.093964 262.717926,45.297787 263.813171,46.043751 
	C267.145630,48.313560 268.409576,55.047695 265.131012,57.103500 
	C259.936951,60.360439 259.640839,64.881638 259.583862,69.993057 
	C252.472931,71.370201 245.755463,72.645676 239.104675,74.205452 
	C237.931580,74.480576 237.037079,75.943710 236.013931,76.858215 
	C222.628845,81.950500 209.243774,87.042786 195.497375,92.215294 
z"/>
<path fill="#489ED4" opacity="1.000000" stroke="none" 
	d="
M462.095703,74.793289 
	C462.095673,74.793282 462.437408,74.866669 463.003906,74.912216 
	C464.388184,74.185417 465.205994,73.413071 466.023773,72.640724 
	C469.458313,70.209877 475.144806,70.710686 477.023956,74.137581 
	C485.485596,89.568909 494.913177,104.565147 499.541473,121.809525 
	C501.915771,130.655869 493.647247,141.471924 484.703796,139.856644 
	C472.193665,137.597198 459.950043,133.862122 447.265625,130.188599 
	C445.253815,127.483521 443.419128,126.074036 440.822937,128.357788 
	C440.409454,128.255264 439.995941,128.152756 439.143250,127.759048 
	C438.459259,127.230362 438.166321,127.107727 437.825226,127.099968 
	C437.825226,127.099968 437.920807,127.121948 437.887726,126.788849 
	C437.287537,125.946327 436.804565,125.236855 436.140625,124.957657 
	C427.000610,121.113960 426.747681,120.646065 428.789459,111.084793 
	C428.957947,110.295868 428.856689,109.449341 428.880798,108.629578 
	C429.130890,108.233818 429.380981,107.838066 430.100403,107.186058 
	C441.078339,96.217636 451.587006,85.505470 462.095703,74.793289 
z"/>
<path fill="#3DA4C9" opacity="1.000000" stroke="none" 
	d="
M395.996368,88.285301 
	C392.518372,86.949417 389.040344,85.613541 385.224915,83.704781 
	C384.063568,82.414024 383.356781,81.377716 382.398499,81.025352 
	C363.833771,74.199104 344.636505,70.119598 325.039124,67.640793 
	C325.680847,66.548668 326.142303,65.401535 326.909515,65.135170 
	C331.120667,63.673149 333.538086,61.470764 332.170868,56.473640 
	C331.902740,55.493553 334.043274,54.044746 334.460297,52.631367 
	C334.848511,51.315594 334.588928,48.524620 334.326508,48.488724 
	C327.759430,47.590492 328.765594,43.188282 329.932617,38.660133 
	C329.438751,38.884151 328.944885,39.108170 328.451019,39.332188 
	C326.634094,35.220665 324.817169,31.109142 323.457520,26.998346 
	C348.435822,28.099007 371.969635,33.871185 395.006134,42.372040 
	C395.675659,43.483765 396.340271,44.243515 397.054382,45.335106 
	C398.401764,47.441830 399.699677,49.216713 401.005493,51.389542 
	C401.037262,54.013668 400.904327,56.254978 401.117401,58.462906 
	C401.575897,63.214333 397.175232,68.146652 401.689270,72.822006 
	C402.086975,73.233932 401.550262,75.518814 400.964630,75.759720 
	C394.879700,78.262672 396.511047,83.679192 395.996368,88.285301 
z"/>
<path fill="#3CA8C7" opacity="1.000000" stroke="none" 
	d="
M323.000244,26.997620 
	C324.817169,31.109142 326.634094,35.220665 328.451019,39.332188 
	C328.944885,39.108170 329.438751,38.884151 329.932617,38.660133 
	C328.765594,43.188282 327.759430,47.590492 334.326508,48.488724 
	C334.588928,48.524620 334.848511,51.315594 334.460297,52.631367 
	C334.043274,54.044746 331.902740,55.493553 332.170868,56.473640 
	C333.538086,61.470764 331.120667,63.673149 326.909515,65.135170 
	C326.142303,65.401535 325.680847,66.548668 324.599030,67.642792 
	C323.453949,67.995163 322.788055,67.992615 322.122192,67.992943 
	C305.894531,68.000893 289.664856,67.870453 273.440521,68.107368 
	C268.952148,68.172905 264.479736,69.331207 260.000000,69.988144 
	C259.640839,64.881638 259.936951,60.360439 265.131012,57.103500 
	C268.409576,55.047695 267.145630,48.313560 263.813171,46.043751 
	C262.717926,45.297787 261.201477,44.093964 261.171021,43.061337 
	C261.076660,39.864536 260.706360,37.448090 257.143402,36.043266 
	C256.364471,35.736149 256.948303,31.972733 257.368988,29.396828 
	C262.550903,28.012033 267.268372,27.031492 271.985809,26.050951 
	C272.401825,25.982059 272.817810,25.913168 273.793671,26.129547 
	C277.251862,26.279413 280.149841,26.038391 283.048645,26.027176 
	C294.645752,25.982300 306.243439,25.968262 317.840057,26.052963 
	C319.562317,26.065544 321.280304,26.668041 323.000244,26.997620 
z"/>
<path fill="#3EB2C3" opacity="1.000000" stroke="none" 
	d="
M206.005127,510.992950 
	C205.336761,512.790466 204.832870,514.673218 203.957123,516.363342 
	C202.931885,518.341980 201.978241,520.723694 200.279831,521.900391 
	C197.835098,523.594177 197.736542,524.489990 199.413971,526.910767 
	C200.362946,528.280212 200.420441,531.344666 199.496429,532.708984 
	C197.608795,535.496277 197.757019,537.261597 200.049133,539.595093 
	C200.936356,540.498352 200.837906,542.454346 201.006546,543.951294 
	C201.135239,545.093628 200.950592,546.268311 200.952591,547.428467 
	C200.956055,549.441467 200.996124,551.454407 200.959335,553.864624 
	C182.820282,550.007996 167.286850,540.321350 151.688599,530.895752 
	C144.592331,526.607666 138.028259,521.438843 131.051865,516.380737 
	C134.138916,517.851685 137.355347,519.695801 140.674652,521.331116 
	C142.054031,522.010681 144.368744,523.057800 144.996735,522.505005 
	C146.154068,521.486206 146.596344,519.453552 146.947220,517.762634 
	C147.654846,514.352295 148.525345,510.886841 148.517014,507.446106 
	C148.510773,504.861145 147.237427,502.279266 146.426178,499.324615 
	C149.785309,497.084900 149.336548,495.509460 147.569382,490.658417 
	C146.416229,487.492859 147.856110,483.297089 148.478561,479.621094 
	C148.672180,478.477692 149.992691,477.525116 150.943665,476.152283 
	C158.971680,481.228210 166.853333,486.637024 174.925629,492.680725 
	C177.705215,495.192993 180.132477,497.365051 182.914154,498.891205 
	C190.531418,503.070404 198.297791,506.977905 206.005127,510.992950 
z"/>
<path fill="#3CA6C7" opacity="1.000000" stroke="none" 
	d="
M300.992676,570.000000 
	C297.382538,569.654663 293.322327,571.314514 290.442627,567.490967 
	C290.200897,567.169922 288.142090,567.623230 287.525940,568.279053 
	C284.516418,571.482300 281.404175,569.615295 278.327789,569.532837 
	C278.217194,569.050659 278.106598,568.568481 277.996002,568.086243 
	C279.458954,567.483337 280.921936,566.880371 282.971619,566.035583 
	C281.958130,565.576843 281.232941,565.414001 280.733856,564.986938 
	C279.797455,564.185730 278.991852,563.231628 278.131897,562.341125 
	C279.234009,561.583618 280.559601,559.987549 281.400024,560.211609 
	C285.337006,561.261047 285.740753,560.193726 285.295258,556.359985 
	C285.027008,554.051270 287.179108,551.461304 288.179626,549.145691 
	C287.461548,546.721069 286.985870,544.004761 285.844452,541.605042 
	C284.896362,539.611694 283.395050,537.729065 281.728271,536.264709 
	C279.045105,533.907471 277.305786,531.374695 278.084961,527.228210 
	C279.481201,526.789917 280.837067,526.781921 282.683289,527.269592 
	C283.998932,528.173035 284.846436,528.974976 285.646118,528.929871 
	C299.144257,528.167725 312.630981,527.189636 326.133179,526.521240 
	C330.353851,526.312256 334.668762,526.525452 338.836884,527.192810 
	C342.340973,527.753906 344.079468,529.857056 341.803986,533.644714 
	C341.235840,534.590454 341.595215,536.093384 341.528259,537.340210 
	C342.876831,537.205872 344.233185,537.122559 345.570862,536.917236 
	C346.307404,536.804138 347.012482,536.486145 347.654846,536.284668 
	C348.900970,538.397827 349.967194,540.205933 351.033447,542.014038 
	C351.033417,542.014038 351.131805,542.365845 351.082611,543.024292 
	C351.145355,549.267395 352.115326,555.176514 345.570190,558.386963 
	C346.543976,558.189636 347.517792,557.992310 347.792755,557.936584 
	C346.886810,560.072754 345.992676,562.181091 345.098541,564.289429 
	C344.624603,564.823242 344.150665,565.357056 342.995728,565.956177 
	C328.540710,567.347656 314.766693,568.673828 300.992676,570.000000 
z"/>
<path fill="#40A0CD" opacity="1.000000" stroke="none" 
	d="
M396.247711,88.503662 
	C396.511047,83.679192 394.879700,78.262672 400.964630,75.759720 
	C401.550262,75.518814 402.086975,73.233932 401.689270,72.822006 
	C397.175232,68.146652 401.575897,63.214333 401.117401,58.462906 
	C400.904327,56.254978 401.037262,54.013668 401.274353,51.162567 
	C401.535339,48.847202 401.535339,47.156754 401.535339,44.794128 
	C403.348816,45.307610 404.917175,45.556137 406.317688,46.180859 
	C413.831299,49.532467 421.278290,53.034416 428.813812,56.334850 
	C430.067505,56.883930 431.643921,56.696117 433.071198,56.848839 
	C442.665619,62.621120 452.260010,68.393410 461.975067,74.479492 
	C451.587006,85.505470 441.078339,96.217636 430.224121,106.984596 
	C418.752075,100.933601 407.625580,94.827820 396.247711,88.503662 
z"/>
<path fill="#6896EC" opacity="1.000000" stroke="none" 
	d="
M529.000000,184.000610 
	C528.734192,187.578064 526.324585,189.001617 523.242004,189.825348 
	C520.396240,190.585815 520.130371,192.391525 519.311279,195.309158 
	C516.387634,205.723282 524.008972,213.241898 525.365295,222.366913 
	C526.254639,228.350037 528.388489,234.141296 529.782227,240.061508 
	C530.104370,241.429916 529.679688,242.974152 529.320923,244.708801 
	C525.393555,232.449661 521.752808,219.916595 518.078979,207.393219 
	C517.753967,206.285141 517.247070,205.225021 516.768127,204.168243 
	C510.217499,189.714264 518.502869,175.712845 534.519897,174.323074 
	C541.781677,173.693008 547.715698,176.098251 551.010376,182.943161 
	C555.038330,191.311676 558.774841,199.820435 562.668640,208.629120 
	C560.645142,205.337494 558.472290,201.745667 556.566833,198.017197 
	C554.387512,193.752792 552.573120,189.300873 550.366760,185.051605 
	C547.945435,180.388336 542.818481,179.831512 536.082825,182.876755 
	C534.186401,183.734146 531.867798,183.657578 529.336304,183.720383 
	C528.624939,183.109283 528.320068,182.787201 528.015137,182.465118 
	C527.833740,182.674622 527.652344,182.884125 527.470947,183.093628 
	C527.980652,183.395950 528.490295,183.698273 529.000000,184.000610 
z"/>
<path fill="#33A2C4" opacity="1.000000" stroke="none" 
	d="
M432.845093,56.605026 
	C431.643921,56.696117 430.067505,56.883930 428.813812,56.334850 
	C421.278290,53.034416 413.831299,49.532467 406.317688,46.180859 
	C404.917175,45.556137 403.348816,45.307610 401.535339,44.794128 
	C401.535339,47.156754 401.535339,48.847202 401.266479,50.764626 
	C399.699677,49.216713 398.401764,47.441830 397.049194,44.981216 
	C396.330078,43.537003 395.665649,42.778526 395.001221,42.020058 
	C371.969635,33.871185 348.435822,28.099007 323.457520,26.998348 
	C321.280304,26.668041 319.562317,26.065544 317.840057,26.052963 
	C306.243439,25.968262 294.645752,25.982300 283.048645,26.027176 
	C280.149841,26.038391 277.251862,26.279413 274.108704,26.095774 
	C274.868439,25.386074 275.854034,24.715345 276.880280,24.645920 
	C299.670746,23.104155 322.293488,23.664534 344.971405,27.349894 
	C375.824921,32.363853 404.995972,41.877323 432.845093,56.605026 
z"/>
<path fill="#33A2C4" opacity="1.000000" stroke="none" 
	d="
M259.583862,69.993050 
	C264.479736,69.331207 268.952148,68.172905 273.440521,68.107368 
	C289.664856,67.870453 305.894531,68.000893 322.122192,67.992943 
	C322.788055,67.992615 323.453949,67.995163 324.559906,67.994370 
	C344.636505,70.119598 363.833771,74.199104 382.398499,81.025352 
	C383.356781,81.377716 384.063568,82.414024 384.936768,83.483185 
	C372.166260,80.374855 359.477448,76.281090 346.497009,73.598656 
	C325.008453,69.157997 303.224854,67.044640 281.300385,70.016182 
	C266.427551,72.031990 251.628220,74.590218 236.404968,76.882034 
	C237.037079,75.943710 237.931580,74.480576 239.104675,74.205452 
	C245.755463,72.645676 252.472931,71.370201 259.583862,69.993050 
z"/>
<path fill="#33A2C4" opacity="1.000000" stroke="none" 
	d="
M351.164795,541.722046 
	C349.967194,540.205933 348.900970,538.397827 347.654846,536.284668 
	C347.012482,536.486145 346.307404,536.804138 345.570862,536.917236 
	C344.233185,537.122559 342.876831,537.205872 341.528259,537.340210 
	C341.595215,536.093384 341.235840,534.590454 341.803986,533.644714 
	C344.079468,529.857056 342.340973,527.753906 338.836884,527.192810 
	C334.668762,526.525452 330.353851,526.312256 326.133179,526.521240 
	C312.630981,527.189636 299.144257,528.167725 285.646118,528.929871 
	C284.846436,528.974976 283.998932,528.173035 283.081879,527.366455 
	C289.129517,526.915283 295.290253,527.166321 301.403351,526.737976 
	C310.175079,526.123352 318.922089,525.100098 327.661530,524.094055 
	C340.239838,522.645996 348.993103,529.004333 351.164795,541.722046 
z"/>
<path fill="#33A2C4" opacity="1.000000" stroke="none" 
	d="
M206.387955,511.001587 
	C198.297791,506.977905 190.531418,503.070404 182.914154,498.891205 
	C180.132477,497.365051 177.705215,495.192993 175.122009,492.939209 
	C192.197006,502.712067 210.290649,510.628754 229.128418,517.585571 
	C223.023773,516.012573 216.759766,514.126404 210.499786,512.226990 
	C209.248886,511.847412 208.013382,511.417114 206.387955,511.001587 
z"/>
<path fill="#2C3961" opacity="1.000000" stroke="none" 
	d="
M435.828857,211.204468 
	C436.048523,208.047424 436.595184,204.670044 436.978577,201.274231 
	C438.317780,189.412155 427.136414,177.278152 412.391083,179.906128 
	C411.473633,180.069656 410.458435,179.684921 409.240021,179.261917 
	C424.464569,175.668259 436.040192,182.319748 438.360657,196.815430 
	C439.078369,201.298996 436.921661,206.242661 435.828857,211.204468 
z"/>
<path fill="#33A2C4" opacity="1.000000" stroke="none" 
	d="
M273.631226,525.888550 
	C273.529419,526.634155 272.956085,527.805176 272.626007,527.740173 
	C258.739136,525.007141 244.873398,522.166443 231.010956,519.310547 
	C230.743820,519.255493 230.547562,518.856445 230.152023,518.290039 
	C237.871094,519.595154 245.729736,521.374695 253.649994,522.815369 
	C260.153046,523.998291 266.729340,524.778564 273.631226,525.888550 
z"/>
<path fill="#33A2C4" opacity="1.000000" stroke="none" 
	d="
M230.717270,32.846817 
	C229.907562,33.732281 228.909882,34.766262 227.700073,35.180138 
	C216.427689,39.036430 205.123154,42.799217 193.810318,46.535683 
	C193.101044,46.769943 192.244003,46.556831 191.233093,46.284050 
	C204.150604,41.580055 217.290741,37.143864 230.717270,32.846817 
z"/>
<path fill="#33A2C4" opacity="1.000000" stroke="none" 
	d="
M300.993958,570.293762 
	C314.766693,568.673828 328.540710,567.347656 342.735718,566.037964 
	C340.498566,567.316895 337.931580,569.387939 335.166290,569.699707 
	C324.066681,570.950989 312.905640,571.657166 301.387268,572.453491 
	C301.003235,571.757263 300.999237,571.172363 300.993958,570.293762 
z"/>
<path fill="#33A2C4" opacity="1.000000" stroke="none" 
	d="
M271.614990,25.943878 
	C267.268372,27.031492 262.550903,28.012033 257.415527,29.011288 
	C249.093658,30.472580 241.189743,31.915163 233.077423,33.069668 
	C235.431305,31.893618 237.930344,30.603033 240.567047,30.188923 
	C250.768967,28.586662 261.014771,27.263763 271.614990,25.943878 
z"/>
<path fill="#2C3961" opacity="1.000000" stroke="none" 
	d="
M408.416016,239.175446 
	C408.291840,238.540710 408.214355,237.492889 408.699188,237.012405 
	C417.364838,228.424133 426.098602,219.904663 435.176605,211.438858 
	C426.598450,220.680344 417.661438,229.853378 408.416016,239.175446 
z"/>
<path fill="#3EB5C2" opacity="1.000000" stroke="none" 
	d="
M75.427139,231.120544 
	C77.836075,222.950302 80.366859,214.566788 83.411667,206.374313 
	C84.876839,202.432053 87.311592,198.850113 89.654480,195.053116 
	C85.254547,206.996078 80.507416,218.990936 75.427139,231.120544 
z"/>
<path fill="#3EB5C2" opacity="1.000000" stroke="none" 
	d="
M88.052231,394.623260 
	C87.456169,394.730103 86.534142,394.596375 86.367584,394.168518 
	C82.569740,384.412262 78.845894,374.627075 75.156410,364.829132 
	C75.017197,364.459381 75.360390,363.907928 75.757446,363.212708 
	C80.050125,373.404755 84.064156,383.825226 88.052231,394.623260 
z"/>
<path fill="#33A2C4" opacity="1.000000" stroke="none" 
	d="
M345.409790,564.153564 
	C345.992676,562.181091 346.886810,560.072754 347.792755,557.936584 
	C347.517792,557.992310 346.543976,558.189636 345.570190,558.386963 
	C352.115326,555.176514 351.145355,549.267395 351.062500,543.205811 
	C354.873016,549.420227 352.859772,557.400635 345.409790,564.153564 
z"/>
<path fill="#2C3961" opacity="1.000000" stroke="none" 
	d="
M266.188171,365.451599 
	C266.120087,364.973236 266.342865,364.516846 266.553192,364.522491 
	C274.535034,364.736786 281.762604,362.454651 288.731567,358.030518 
	C283.158722,365.306427 275.419556,367.283142 266.188171,365.451599 
z"/>
<path fill="#40A0CD" opacity="1.000000" stroke="none" 
	d="
M428.580444,108.843704 
	C428.856689,109.449341 428.957947,110.295868 428.789459,111.084793 
	C426.747681,120.646065 427.000610,121.113960 436.140625,124.957657 
	C436.804565,125.236855 437.287537,125.946327 437.859985,126.829315 
	C436.746429,126.896957 435.616394,126.626541 434.510345,126.279556 
	C424.736542,123.213356 422.769348,117.764893 428.580444,108.843704 
z"/>
<path fill="#3EB5C2" opacity="1.000000" stroke="none" 
	d="
M69.098969,262.621094 
	C66.597939,256.091400 70.265213,249.947739 71.707458,243.248169 
	C71.064438,249.420471 70.140602,255.834457 69.098969,262.621094 
z"/>
<path fill="#33A2C4" opacity="1.000000" stroke="none" 
	d="
M68.054062,328.619934 
	C67.100121,321.508301 66.241798,314.053467 65.668373,306.319519 
	C66.685410,313.452515 67.417549,320.864624 68.054062,328.619934 
z"/>
<path fill="#3FB8C2" opacity="1.000000" stroke="none" 
	d="
M65.691376,445.473267 
	C69.020744,449.884644 72.486565,454.629395 75.921028,459.754517 
	C72.535728,455.358826 69.181778,450.582764 65.691376,445.473267 
z"/>
<path fill="#33A2C4" opacity="1.000000" stroke="none" 
	d="
M75.523804,361.508362 
	C73.750778,355.491699 71.894783,349.054901 70.067841,342.174438 
	C71.878204,348.183228 73.659523,354.635773 75.523804,361.508362 
z"/>
<path fill="#2C3961" opacity="1.000000" stroke="none" 
	d="
M290.340393,356.961700 
	C291.288635,351.363953 295.348846,348.242462 300.751831,346.034302 
	C297.631592,349.634216 294.138062,353.225677 290.340393,356.961700 
z"/>
<path fill="#6896EC" opacity="1.000000" stroke="none" 
	d="
M578.085449,304.540894 
	C577.676941,301.632782 577.093750,298.262634 577.055847,294.886322 
	C576.994690,289.445129 577.293030,283.999847 577.747009,278.267181 
	C578.088135,286.677399 578.121826,295.376709 578.085449,304.540894 
z"/>
<path fill="#33A2C4" opacity="1.000000" stroke="none" 
	d="
M66.000275,301.500183 
	C66.002655,295.714203 66.059311,289.468842 66.502121,283.129974 
	C66.610367,289.037933 66.332458,295.039368 66.000275,301.500183 
z"/>
<path fill="#3EB5C2" opacity="1.000000" stroke="none" 
	d="
M92.432861,190.198563 
	C93.567711,187.613297 95.008751,184.868942 96.811813,182.118881 
	C95.695580,184.755264 94.217308,187.397385 92.432861,190.198563 
z"/>
<path fill="#3EB5C2" opacity="1.000000" stroke="none" 
	d="
M105.485168,169.031693 
	C106.634354,166.839310 108.075890,164.486938 109.891815,162.179214 
	C108.769974,164.439804 107.273743,166.655762 105.485168,169.031693 
z"/>
<path fill="#3EB2C3" opacity="1.000000" stroke="none" 
	d="
M149.059448,473.627686 
	C147.199570,472.387329 145.153183,470.864502 143.123856,468.954041 
	C145.051590,470.159332 146.962250,471.752228 149.059448,473.627686 
z"/>
<path fill="#40A0CD" opacity="1.000000" stroke="none" 
	d="
M441.089417,128.600342 
	C443.419128,126.074036 445.253815,127.483521 446.978577,130.012253 
	C445.130859,129.884766 443.243378,129.363846 441.089417,128.600342 
z"/>
<path fill="#3EB5C2" opacity="1.000000" stroke="none" 
	d="
M81.569336,127.989532 
	C80.738777,129.528198 79.614708,131.217178 78.112747,132.905594 
	C78.915169,131.316635 80.095490,129.728241 81.569336,127.989532 
z"/>
<path fill="#3EB2C3" opacity="1.000000" stroke="none" 
	d="
M120.821335,508.419556 
	C122.383209,509.244781 124.127266,510.360748 125.838196,511.862488 
	C124.204552,511.068970 122.604034,509.889648 120.821335,508.419556 
z"/>
<path fill="#3EB2C3" opacity="1.000000" stroke="none" 
	d="
M125.937317,512.489868 
	C127.499565,513.258972 129.200790,514.326904 130.906265,515.765991 
	C129.299103,515.020935 127.687691,513.904846 125.937317,512.489868 
z"/>
<path fill="#33A2C4" opacity="1.000000" stroke="none" 
	d="
M69.046646,335.650909 
	C68.650841,334.173676 68.346466,332.386810 68.066055,330.181396 
	C68.439377,331.622314 68.788734,333.481781 69.046646,335.650909 
z"/>
<path fill="#3EB5C2" opacity="1.000000" stroke="none" 
	d="
M84.684891,124.065231 
	C84.165680,125.229774 83.367195,126.557922 82.190918,127.875504 
	C82.677299,126.652916 83.541458,125.440887 84.684891,124.065231 
z"/>
<path fill="#2C3961" opacity="1.000000" stroke="none" 
	d="
M371.394348,276.148071 
	C371.909393,275.221680 372.724487,274.161011 373.918701,273.099670 
	C373.430023,274.070587 372.562195,275.042206 371.394348,276.148071 
z"/>
<path fill="#33A2C4" opacity="1.000000" stroke="none" 
	d="
M70.231102,340.770874 
	C69.727829,339.850220 69.383865,338.682343 69.069260,337.120728 
	C69.529205,337.992554 69.959808,339.258118 70.231102,340.770874 
z"/>
<path fill="#40A0CD" opacity="1.000000" stroke="none" 
	d="
M465.684875,72.715668 
	C465.205994,73.413071 464.388184,74.185417 463.176514,74.939621 
	C463.637085,74.211189 464.491516,73.500900 465.684875,72.715668 
z"/>
<path fill="#3EB5C2" opacity="1.000000" stroke="none" 
	d="
M103.468399,172.041183 
	C103.625099,171.180389 104.058060,170.169327 104.871933,169.175995 
	C104.750107,170.092773 104.247375,170.991837 103.468399,172.041183 
z"/>
<path fill="#3EB5C2" opacity="1.000000" stroke="none" 
	d="
M76.697746,134.102219 
	C76.604469,134.639465 76.282761,135.311752 75.656952,135.991074 
	C75.725006,135.411163 76.097160,134.824203 76.697746,134.102219 
z"/>
<path fill="#3EB5C2" opacity="1.000000" stroke="none" 
	d="
M96.227638,410.754333 
	C95.581413,410.199554 94.839142,409.292542 94.111969,408.011169 
	C94.795258,408.558563 95.463425,409.480347 96.227638,410.754333 
z"/>
<path fill="#3EB5C2" opacity="1.000000" stroke="none" 
	d="
M98.473465,180.038910 
	C98.603424,179.171844 99.011055,178.153793 99.791351,177.119553 
	C99.693054,178.031570 99.222092,178.959747 98.473465,180.038910 
z"/>
<path fill="#3EB5C2" opacity="1.000000" stroke="none" 
	d="
M101.876167,174.286102 
	C101.903999,173.626801 102.203850,172.890182 102.878265,172.174774 
	C102.884621,172.866913 102.516403,173.537827 101.876167,174.286102 
z"/>
<path fill="#3EB5C2" opacity="1.000000" stroke="none" 
	d="
M100.379013,176.932587 
	C100.310104,176.227005 100.513382,175.324860 101.084335,174.379211 
	C101.185066,175.135803 100.918129,175.935913 100.379013,176.932587 
z"/>
<path fill="#3EB5C2" opacity="1.000000" stroke="none" 
	d="
M97.372772,181.974396 
	C97.288544,181.543472 97.462837,180.944885 97.942215,180.226913 
	C98.041969,180.673935 97.836639,181.240341 97.372772,181.974396 
z"/>
<path fill="#40A0CD" opacity="1.000000" stroke="none" 
	d="
M437.917786,127.345856 
	C438.166321,127.107727 438.459259,127.230362 438.836273,127.670502 
	C438.649078,127.779327 438.329712,127.685539 437.917786,127.345856 
z"/>
<path fill="#3EB5C2" opacity="1.000000" stroke="none" 
	d="
M90.354614,194.191513 
	C90.252411,194.002197 90.398476,193.652710 90.788040,193.147156 
	C90.888649,193.337845 90.745758,193.684601 90.354614,194.191513 
z"/>
<path fill="#33A2C4" opacity="1.000000" stroke="none" 
	d="
M278.045105,526.743652 
	C277.904236,526.915161 277.683044,526.856201 277.334991,526.652222 
	C277.448547,526.367188 277.700745,526.369141 278.045105,526.743652 
z"/>
<path fill="#40A0CD" opacity="1.000000" stroke="none" 
	d="
M395.006134,42.372032 
	C395.665649,42.778526 396.330078,43.537003 396.999695,44.649376 
	C396.340271,44.243515 395.675659,43.483765 395.006134,42.372032 
z"/>
<path fill="#6996EC" opacity="1.000000" stroke="none" 
	d="
M529.000000,184.000305 
	C528.490295,183.698273 527.980652,183.395950 527.470947,183.093628 
	C527.652344,182.884125 527.833740,182.674622 528.015137,182.465118 
	C528.320068,182.787201 528.624939,183.109283 528.964966,183.715378 
	C529.000000,183.999390 529.000000,184.000000 529.000000,184.000305 
z"/>
</svg>